<mxfile host="app.diagrams.net" modified="2021-09-30T10:47:10.403Z" agent="5.0 (Windows)" etag="97dfC23nvuiPEJGgeA8N" version="15.3.8" type="github">
  <diagram id="5GEMUtOIH0vdJ1ngVMHI" name="Страница 1">
    <mxGraphModel dx="865" dy="1616" grid="1" gridSize="10" guides="1" tooltips="1" connect="1" arrows="1" fold="1" page="1" pageScale="1" pageWidth="827" pageHeight="1169" math="0" shadow="0">
      <root>
        <mxCell id="0" />
        <mxCell id="1" parent="0" />
        <mxCell id="qXA2Iq4RMXD0maplFMya-1" value="Клиент" style="shape=umlActor;verticalLabelPosition=bottom;verticalAlign=top;html=1;outlineConnect=0;strokeColor=#CCCCCC;" parent="1" vertex="1">
          <mxGeometry x="40" y="200" width="30" height="60" as="geometry" />
        </mxCell>
        <mxCell id="qXA2Iq4RMXD0maplFMya-2" value="Просмотр информации" style="rounded=0;whiteSpace=wrap;html=1;" parent="1" vertex="1">
          <mxGeometry x="200" y="110" width="90" height="40" as="geometry" />
        </mxCell>
        <mxCell id="YH_Gy40x2l6gPjEG8Hgx-11" style="edgeStyle=none;orthogonalLoop=1;jettySize=auto;html=1;" edge="1" parent="1" source="qXA2Iq4RMXD0maplFMya-3" target="YH_Gy40x2l6gPjEG8Hgx-9">
          <mxGeometry relative="1" as="geometry" />
        </mxCell>
        <mxCell id="qXA2Iq4RMXD0maplFMya-3" value="Оценка работы сервиса" style="rounded=0;whiteSpace=wrap;html=1;fillColor=#f8cecc;strokeColor=#b85450;" parent="1" vertex="1">
          <mxGeometry x="210" y="410" width="90" height="40" as="geometry" />
        </mxCell>
        <mxCell id="YH_Gy40x2l6gPjEG8Hgx-16" style="edgeStyle=none;orthogonalLoop=1;jettySize=auto;html=1;" edge="1" parent="1" source="qXA2Iq4RMXD0maplFMya-5" target="YH_Gy40x2l6gPjEG8Hgx-15">
          <mxGeometry relative="1" as="geometry" />
        </mxCell>
        <mxCell id="qXA2Iq4RMXD0maplFMya-5" value="Оформление заказа" style="rounded=0;whiteSpace=wrap;html=1;" parent="1" vertex="1">
          <mxGeometry x="200" y="220" width="90" height="40" as="geometry" />
        </mxCell>
        <mxCell id="qXA2Iq4RMXD0maplFMya-8" value="" style="endArrow=none;html=1;endFill=0;strokeColor=#CCCCCC;" parent="1" source="qXA2Iq4RMXD0maplFMya-1" target="qXA2Iq4RMXD0maplFMya-2" edge="1">
          <mxGeometry width="50" height="50" relative="1" as="geometry">
            <mxPoint x="390" y="250" as="sourcePoint" />
            <mxPoint x="440" y="200" as="targetPoint" />
          </mxGeometry>
        </mxCell>
        <mxCell id="qXA2Iq4RMXD0maplFMya-9" value="" style="endArrow=none;html=1;endFill=0;strokeColor=#CCCCCC;" parent="1" source="qXA2Iq4RMXD0maplFMya-1" target="qXA2Iq4RMXD0maplFMya-5" edge="1">
          <mxGeometry width="50" height="50" relative="1" as="geometry">
            <mxPoint x="390" y="250" as="sourcePoint" />
            <mxPoint x="440" y="200" as="targetPoint" />
          </mxGeometry>
        </mxCell>
        <mxCell id="qXA2Iq4RMXD0maplFMya-10" value="" style="endArrow=none;html=1;endFill=0;strokeColor=#CCCCCC;" parent="1" source="qXA2Iq4RMXD0maplFMya-1" target="qXA2Iq4RMXD0maplFMya-3" edge="1">
          <mxGeometry width="50" height="50" relative="1" as="geometry">
            <mxPoint x="390" y="250" as="sourcePoint" />
            <mxPoint x="440" y="200" as="targetPoint" />
          </mxGeometry>
        </mxCell>
        <mxCell id="YH_Gy40x2l6gPjEG8Hgx-2" value="цены" style="edgeStyle=orthogonalEdgeStyle;rounded=1;orthogonalLoop=1;jettySize=auto;html=1;" edge="1" parent="1" source="qXA2Iq4RMXD0maplFMya-11" target="qXA2Iq4RMXD0maplFMya-22">
          <mxGeometry relative="1" as="geometry">
            <Array as="points">
              <mxPoint x="372" y="70" />
            </Array>
          </mxGeometry>
        </mxCell>
        <mxCell id="qXA2Iq4RMXD0maplFMya-11" value="" style="html=1;whiteSpace=wrap;aspect=fixed;shape=isoRectangle;" parent="1" vertex="1">
          <mxGeometry x="340" y="111.6" width="64" height="38.4" as="geometry" />
        </mxCell>
        <mxCell id="qXA2Iq4RMXD0maplFMya-18" value="" style="endArrow=classic;html=1;" parent="1" source="qXA2Iq4RMXD0maplFMya-2" target="qXA2Iq4RMXD0maplFMya-11" edge="1">
          <mxGeometry width="50" height="50" relative="1" as="geometry">
            <mxPoint x="380" y="250" as="sourcePoint" />
            <mxPoint x="340" y="130" as="targetPoint" />
          </mxGeometry>
        </mxCell>
        <mxCell id="qXA2Iq4RMXD0maplFMya-21" value="Просмотр акций" style="rounded=0;whiteSpace=wrap;html=1;" parent="1" vertex="1">
          <mxGeometry x="550" y="100" width="90" height="38.4" as="geometry" />
        </mxCell>
        <mxCell id="qXA2Iq4RMXD0maplFMya-22" value="Просмотр цен" style="rounded=0;whiteSpace=wrap;html=1;" parent="1" vertex="1">
          <mxGeometry x="550" y="50" width="90" height="40" as="geometry" />
        </mxCell>
        <mxCell id="qXA2Iq4RMXD0maplFMya-23" value="акции" style="endArrow=classic;html=1;edgeStyle=orthogonalEdgeStyle;" parent="1" source="qXA2Iq4RMXD0maplFMya-11" target="qXA2Iq4RMXD0maplFMya-21" edge="1">
          <mxGeometry width="50" height="50" relative="1" as="geometry">
            <mxPoint x="380" y="260" as="sourcePoint" />
            <mxPoint x="430" y="210" as="targetPoint" />
            <Array as="points">
              <mxPoint x="372" y="191" />
              <mxPoint x="530" y="191" />
              <mxPoint x="530" y="119" />
            </Array>
          </mxGeometry>
        </mxCell>
        <mxCell id="YH_Gy40x2l6gPjEG8Hgx-20" style="edgeStyle=none;orthogonalLoop=1;jettySize=auto;html=1;" edge="1" parent="1" source="qXA2Iq4RMXD0maplFMya-26" target="YH_Gy40x2l6gPjEG8Hgx-19">
          <mxGeometry relative="1" as="geometry" />
        </mxCell>
        <mxCell id="YH_Gy40x2l6gPjEG8Hgx-22" style="edgeStyle=none;orthogonalLoop=1;jettySize=auto;html=1;" edge="1" parent="1" source="qXA2Iq4RMXD0maplFMya-26" target="YH_Gy40x2l6gPjEG8Hgx-15">
          <mxGeometry relative="1" as="geometry" />
        </mxCell>
        <mxCell id="qXA2Iq4RMXD0maplFMya-26" value="Оплата заказа" style="rounded=0;whiteSpace=wrap;html=1;" parent="1" vertex="1">
          <mxGeometry x="550" y="220" width="90" height="40" as="geometry" />
        </mxCell>
        <mxCell id="qXA2Iq4RMXD0maplFMya-27" value="Карта лояльности" style="rounded=0;whiteSpace=wrap;html=1;fillColor=#ffe6cc;strokeColor=#d79b00;" parent="1" vertex="1">
          <mxGeometry x="430" y="220" width="90" height="40" as="geometry" />
        </mxCell>
        <mxCell id="YH_Gy40x2l6gPjEG8Hgx-18" style="edgeStyle=none;orthogonalLoop=1;jettySize=auto;html=1;" edge="1" parent="1" source="qXA2Iq4RMXD0maplFMya-28" target="YH_Gy40x2l6gPjEG8Hgx-15">
          <mxGeometry relative="1" as="geometry" />
        </mxCell>
        <mxCell id="qXA2Iq4RMXD0maplFMya-28" value="Выбор топлива" style="rounded=0;whiteSpace=wrap;html=1;" parent="1" vertex="1">
          <mxGeometry x="314" y="220" width="90" height="40" as="geometry" />
        </mxCell>
        <mxCell id="qXA2Iq4RMXD0maplFMya-29" value="" style="endArrow=classic;html=1;" parent="1" source="qXA2Iq4RMXD0maplFMya-5" target="qXA2Iq4RMXD0maplFMya-28" edge="1">
          <mxGeometry width="50" height="50" relative="1" as="geometry">
            <mxPoint x="430" y="250" as="sourcePoint" />
            <mxPoint x="340" y="240" as="targetPoint" />
            <Array as="points" />
          </mxGeometry>
        </mxCell>
        <mxCell id="qXA2Iq4RMXD0maplFMya-30" value="" style="endArrow=classic;html=1;" parent="1" source="qXA2Iq4RMXD0maplFMya-28" target="qXA2Iq4RMXD0maplFMya-27" edge="1">
          <mxGeometry width="50" height="50" relative="1" as="geometry">
            <mxPoint x="430" y="250" as="sourcePoint" />
            <mxPoint x="480" y="200" as="targetPoint" />
          </mxGeometry>
        </mxCell>
        <mxCell id="qXA2Iq4RMXD0maplFMya-31" value="" style="endArrow=classic;html=1;" parent="1" source="qXA2Iq4RMXD0maplFMya-27" target="qXA2Iq4RMXD0maplFMya-26" edge="1">
          <mxGeometry width="50" height="50" relative="1" as="geometry">
            <mxPoint x="430" y="250" as="sourcePoint" />
            <mxPoint x="480" y="200" as="targetPoint" />
          </mxGeometry>
        </mxCell>
        <mxCell id="qXA2Iq4RMXD0maplFMya-32" value="Станция заправки" style="shape=cylinder3;whiteSpace=wrap;html=1;boundedLbl=1;backgroundOutline=1;size=15;" parent="1" vertex="1">
          <mxGeometry x="870" y="-30" width="60" height="80" as="geometry" />
        </mxCell>
        <mxCell id="qXA2Iq4RMXD0maplFMya-56" style="rounded=1;orthogonalLoop=1;jettySize=auto;html=1;endArrow=none;endFill=0;strokeColor=#CCCCCC;" parent="1" source="qXA2Iq4RMXD0maplFMya-37" target="qXA2Iq4RMXD0maplFMya-55" edge="1">
          <mxGeometry relative="1" as="geometry">
            <mxPoint x="980" y="380" as="targetPoint" />
          </mxGeometry>
        </mxCell>
        <mxCell id="qXA2Iq4RMXD0maplFMya-61" style="rounded=1;orthogonalLoop=1;jettySize=auto;html=1;endArrow=none;endFill=0;strokeColor=#CCCCCC;" parent="1" source="qXA2Iq4RMXD0maplFMya-37" target="qXA2Iq4RMXD0maplFMya-38" edge="1">
          <mxGeometry relative="1" as="geometry" />
        </mxCell>
        <mxCell id="qXA2Iq4RMXD0maplFMya-37" value="Заправщик" style="shape=umlActor;verticalLabelPosition=bottom;verticalAlign=top;html=1;outlineConnect=0;strokeColor=#CCCCCC;" parent="1" vertex="1">
          <mxGeometry x="820" y="350" width="30" height="60" as="geometry" />
        </mxCell>
        <mxCell id="qXA2Iq4RMXD0maplFMya-38" value="Запуск заправки" style="rounded=0;whiteSpace=wrap;html=1;" parent="1" vertex="1">
          <mxGeometry x="680" y="220" width="90" height="40" as="geometry" />
        </mxCell>
        <mxCell id="qXA2Iq4RMXD0maplFMya-40" value="" style="endArrow=classic;html=1;" parent="1" source="qXA2Iq4RMXD0maplFMya-26" target="qXA2Iq4RMXD0maplFMya-38" edge="1">
          <mxGeometry width="50" height="50" relative="1" as="geometry">
            <mxPoint x="530" y="250" as="sourcePoint" />
            <mxPoint x="560" y="250" as="targetPoint" />
          </mxGeometry>
        </mxCell>
        <mxCell id="qXA2Iq4RMXD0maplFMya-41" value="" style="endArrow=classic;html=1;edgeStyle=orthogonalEdgeStyle;" parent="1" source="qXA2Iq4RMXD0maplFMya-32" target="qXA2Iq4RMXD0maplFMya-38" edge="1">
          <mxGeometry width="50" height="50" relative="1" as="geometry">
            <mxPoint x="490" y="200" as="sourcePoint" />
            <mxPoint x="540" y="150" as="targetPoint" />
          </mxGeometry>
        </mxCell>
        <mxCell id="qXA2Iq4RMXD0maplFMya-43" value="Оповещения" style="rounded=0;whiteSpace=wrap;html=1;" parent="1" vertex="1">
          <mxGeometry x="855" y="90" width="90" height="40" as="geometry" />
        </mxCell>
        <mxCell id="qXA2Iq4RMXD0maplFMya-45" value="" style="endArrow=classic;html=1;" parent="1" source="qXA2Iq4RMXD0maplFMya-32" target="qXA2Iq4RMXD0maplFMya-43" edge="1">
          <mxGeometry width="50" height="50" relative="1" as="geometry">
            <mxPoint x="823" y="50" as="sourcePoint" />
            <mxPoint x="840" y="80" as="targetPoint" />
          </mxGeometry>
        </mxCell>
        <mxCell id="YH_Gy40x2l6gPjEG8Hgx-1" value="Ошибки" style="edgeStyle=orthogonalEdgeStyle;rounded=1;orthogonalLoop=1;jettySize=auto;html=1;" edge="1" parent="1" source="qXA2Iq4RMXD0maplFMya-47" target="qXA2Iq4RMXD0maplFMya-55">
          <mxGeometry x="0.2437" relative="1" as="geometry">
            <Array as="points">
              <mxPoint x="977" y="191" />
            </Array>
            <mxPoint as="offset" />
          </mxGeometry>
        </mxCell>
        <mxCell id="qXA2Iq4RMXD0maplFMya-47" value="" style="html=1;whiteSpace=wrap;aspect=fixed;shape=isoRectangle;" parent="1" vertex="1">
          <mxGeometry x="868" y="171.6" width="64" height="38.4" as="geometry" />
        </mxCell>
        <mxCell id="qXA2Iq4RMXD0maplFMya-49" value="" style="endArrow=classic;html=1;" parent="1" source="qXA2Iq4RMXD0maplFMya-43" target="qXA2Iq4RMXD0maplFMya-47" edge="1">
          <mxGeometry width="50" height="50" relative="1" as="geometry">
            <mxPoint x="720" y="160" as="sourcePoint" />
            <mxPoint x="870" y="190" as="targetPoint" />
          </mxGeometry>
        </mxCell>
        <mxCell id="qXA2Iq4RMXD0maplFMya-59" style="edgeStyle=orthogonalEdgeStyle;rounded=1;orthogonalLoop=1;jettySize=auto;html=1;" parent="1" source="qXA2Iq4RMXD0maplFMya-47" target="qXA2Iq4RMXD0maplFMya-21" edge="1">
          <mxGeometry relative="1" as="geometry">
            <Array as="points">
              <mxPoint x="670" y="191" />
              <mxPoint x="670" y="119" />
            </Array>
          </mxGeometry>
        </mxCell>
        <mxCell id="qXA2Iq4RMXD0maplFMya-53" value="Акции" style="text;html=1;strokeColor=none;fillColor=none;align=center;verticalAlign=middle;whiteSpace=wrap;rounded=0;" parent="1" vertex="1">
          <mxGeometry x="830" y="190" width="40" height="20" as="geometry" />
        </mxCell>
        <mxCell id="qXA2Iq4RMXD0maplFMya-55" value="Исправление ошибки" style="rounded=0;whiteSpace=wrap;html=1;" parent="1" vertex="1">
          <mxGeometry x="932" y="270" width="90" height="40" as="geometry" />
        </mxCell>
        <mxCell id="qXA2Iq4RMXD0maplFMya-66" value="&lt;h1&gt;Действия&lt;/h1&gt;&lt;div&gt;Клиент:&lt;/div&gt;&lt;div&gt;1) Просматривает информацию&lt;/div&gt;&lt;div&gt;2) Оформляет заказ&lt;/div&gt;&lt;div&gt;3) Оценивает сервис&lt;/div&gt;&lt;div&gt;&lt;br&gt;&lt;/div&gt;&lt;div&gt;Заправщик:&lt;/div&gt;&lt;div&gt;1) Реализует заправку автомобиля&lt;/div&gt;&lt;div&gt;2) Исправляет ошибки системы&lt;/div&gt;&lt;div&gt;Станция заправки:&lt;/div&gt;&lt;div&gt;1) Запускает заправку автомобиля&lt;/div&gt;&lt;div&gt;2) Оповещает клиента об акциях и ошибках систмы&lt;/div&gt;&lt;div&gt;&lt;br&gt;&lt;/div&gt;&lt;div&gt;&lt;br&gt;&lt;/div&gt;" style="text;html=1;strokeColor=none;fillColor=none;spacing=5;spacingTop=-20;whiteSpace=wrap;overflow=hidden;rounded=0;fontStyle=2" parent="1" vertex="1">
          <mxGeometry x="1350" y="50" width="190" height="330" as="geometry" />
        </mxCell>
        <mxCell id="YH_Gy40x2l6gPjEG8Hgx-13" style="edgeStyle=none;orthogonalLoop=1;jettySize=auto;html=1;" edge="1" parent="1" source="YH_Gy40x2l6gPjEG8Hgx-9" target="YH_Gy40x2l6gPjEG8Hgx-12">
          <mxGeometry relative="1" as="geometry" />
        </mxCell>
        <mxCell id="YH_Gy40x2l6gPjEG8Hgx-9" value="Отзыв" style="html=1;dashed=0;whitespace=wrap;shape=partialRectangle;right=0;strokeColor=#000000;" vertex="1" parent="1">
          <mxGeometry x="440" y="415" width="100" height="30" as="geometry" />
        </mxCell>
        <mxCell id="YH_Gy40x2l6gPjEG8Hgx-12" value="Просмотр отзывов" style="rounded=0;whiteSpace=wrap;html=1;" vertex="1" parent="1">
          <mxGeometry x="630" y="410" width="90" height="40" as="geometry" />
        </mxCell>
        <mxCell id="YH_Gy40x2l6gPjEG8Hgx-14" style="rounded=1;orthogonalLoop=1;jettySize=auto;html=1;endArrow=none;endFill=0;strokeColor=#CCCCCC;" edge="1" parent="1" source="qXA2Iq4RMXD0maplFMya-37" target="YH_Gy40x2l6gPjEG8Hgx-12">
          <mxGeometry relative="1" as="geometry">
            <mxPoint x="830" y="370.90909090909076" as="sourcePoint" />
            <mxPoint x="750.7142857142858" y="270" as="targetPoint" />
          </mxGeometry>
        </mxCell>
        <mxCell id="YH_Gy40x2l6gPjEG8Hgx-17" style="edgeStyle=none;orthogonalLoop=1;jettySize=auto;html=1;" edge="1" parent="1" source="YH_Gy40x2l6gPjEG8Hgx-15" target="qXA2Iq4RMXD0maplFMya-28">
          <mxGeometry relative="1" as="geometry" />
        </mxCell>
        <mxCell id="YH_Gy40x2l6gPjEG8Hgx-23" style="edgeStyle=none;orthogonalLoop=1;jettySize=auto;html=1;" edge="1" parent="1" source="YH_Gy40x2l6gPjEG8Hgx-15" target="qXA2Iq4RMXD0maplFMya-26">
          <mxGeometry relative="1" as="geometry" />
        </mxCell>
        <mxCell id="YH_Gy40x2l6gPjEG8Hgx-15" value="Заказ" style="html=1;dashed=0;whitespace=wrap;shape=partialRectangle;right=0;strokeColor=#000000;" vertex="1" parent="1">
          <mxGeometry x="309" y="330" width="100" height="30" as="geometry" />
        </mxCell>
        <mxCell id="YH_Gy40x2l6gPjEG8Hgx-21" style="edgeStyle=none;orthogonalLoop=1;jettySize=auto;html=1;" edge="1" parent="1" source="YH_Gy40x2l6gPjEG8Hgx-19" target="qXA2Iq4RMXD0maplFMya-38">
          <mxGeometry relative="1" as="geometry" />
        </mxCell>
        <mxCell id="YH_Gy40x2l6gPjEG8Hgx-19" value="Заправка" style="html=1;dashed=0;whitespace=wrap;shape=partialRectangle;right=0;strokeColor=#000000;" vertex="1" parent="1">
          <mxGeometry x="620" y="300" width="100" height="30" as="geometry" />
        </mxCell>
        <mxCell id="YH_Gy40x2l6gPjEG8Hgx-25" value="Ошибка" style="html=1;dashed=0;whitespace=wrap;shape=partialRectangle;right=0;strokeColor=#000000;" vertex="1" parent="1">
          <mxGeometry x="1040" y="170" width="100" height="30" as="geometry" />
        </mxCell>
        <mxCell id="YH_Gy40x2l6gPjEG8Hgx-26" value="" style="shape=rhombus;html=1;dashed=0;whitespace=wrap;perimeter=rhombusPerimeter;strokeColor=#d79b00;fillColor=#ffe6cc;" vertex="1" parent="1">
          <mxGeometry x="565" y="160" width="60" height="50" as="geometry" />
        </mxCell>
      </root>
    </mxGraphModel>
  </diagram>
</mxfile>
